<svg width="393" height="394" viewBox="0 0 393 394" fill="none" xmlns="http://www.w3.org/2000/svg">
<path d="M51 393.75V0L360.375 196.875L51 393.75Z" fill="#1D1B20"/>
<path d="M88.1157 218.153H92.8565V222.894H88.1157V218.153ZM92.8565 218.153H97.5972V222.894H92.8565V218.153ZM97.5972 218.153H102.338V222.894H97.5972V218.153ZM97.5972 222.894H102.338V227.634H97.5972V222.894ZM97.5972 227.634H102.338V232.375H97.5972V227.634ZM92.8565 227.634H97.5972V232.375H92.8565V227.634ZM88.1157 227.634H92.8565V232.375H88.1157V227.634ZM88.1157 222.894H92.8565V227.634H88.1157V222.894ZM92.8565 222.894H97.5972V227.634H92.8565V222.894Z" fill="#F97316"/>
<path d="M121.347 180.227H126.088V184.968H121.347V180.227ZM116.606 184.968H121.347V189.708H116.606V184.968ZM116.606 189.708H121.347V194.449H116.606V189.708ZM111.866 184.968H116.606V189.708H111.866V184.968ZM111.866 180.227H116.606V184.968H111.866V180.227ZM116.606 180.227H121.347V184.968H116.606V180.227ZM116.606 194.449H121.347V199.19H116.606V194.449ZM111.866 194.449H116.606V199.19H111.866V194.449ZM111.866 199.19H116.606V203.931H111.866V199.19ZM111.866 189.708H116.606V194.449H111.866V189.708ZM111.866 203.931H116.606V208.671H111.866V203.931ZM111.866 208.671H116.606V213.412H111.866V208.671ZM111.866 213.412H116.606V218.153H111.866V213.412ZM111.866 218.153H116.606V222.894H111.866V218.153ZM111.866 222.894H116.606V227.634H111.866V222.894ZM116.606 222.894H121.347V227.634H116.606V222.894ZM121.347 222.894H126.088V227.634H121.347V222.894ZM121.347 227.634H126.088V232.375H121.347V227.634ZM116.606 227.634H121.347V232.375H116.606V227.634ZM111.866 227.634H116.606V232.375H111.866V227.634ZM121.347 218.153H126.088V222.894H121.347V218.153ZM121.347 213.412H126.088V218.153H121.347V213.412ZM121.347 208.671H126.088V213.412H121.347V208.671ZM121.347 203.931H126.088V208.671H121.347V203.931ZM121.347 199.19H126.088V203.931H121.347V199.19ZM121.347 194.449H126.088V199.19H121.347V194.449ZM121.347 189.708H126.088V194.449H121.347V189.708ZM121.347 184.968H126.088V189.708H121.347V184.968ZM116.606 199.19H121.347V203.931H116.606V199.19ZM116.606 208.671H121.347V213.412H116.606V208.671ZM116.606 213.412H121.347V218.153H116.606V213.412ZM116.606 218.153H121.347V222.894H116.606V218.153ZM116.606 203.931H121.347V208.671H116.606V203.931ZM140.31 227.634H145.051V232.375H140.31V227.634ZM145.051 227.634H149.792V232.375H145.051V227.634ZM145.051 222.894H149.792V227.634H145.051V222.894ZM145.051 218.153H149.792V222.894H145.051V218.153ZM145.051 213.412H149.792V218.153H145.051V213.412ZM149.792 213.412H154.532V218.153H149.792V213.412ZM149.792 208.671H154.532V213.412H149.792V208.671ZM149.792 218.153H154.532V222.894H149.792V218.153ZM149.792 222.894H154.532V227.634H149.792V222.894ZM149.792 227.634H154.532V232.375H149.792V227.634ZM140.31 222.894H145.051V227.634H140.31V222.894ZM140.31 218.153H145.051V222.894H140.31V218.153ZM140.31 213.412H145.051V218.153H140.31V213.412ZM140.31 208.671H145.051V213.412H140.31V208.671ZM140.31 203.931H145.051V208.671H140.31V203.931ZM140.31 199.19H145.051V203.931H140.31V199.19ZM140.31 194.449H145.051V199.19H140.31V194.449ZM140.31 189.708H145.051V194.449H140.31V189.708ZM140.31 184.968H145.051V189.708H140.31V184.968ZM135.569 184.968H140.31V189.708H135.569V184.968ZM145.051 189.708H149.792V194.449H145.051V189.708ZM145.051 194.449H149.792V199.19H145.051V194.449ZM145.051 199.19H149.792V203.931H145.051V199.19ZM145.051 203.931H149.792V208.671H145.051V203.931ZM145.051 208.671H149.792V213.412H145.051V208.671ZM149.792 203.931H154.532V208.671H149.792V203.931ZM149.792 199.19H154.532V203.931H149.792V199.19ZM149.792 194.449H154.532V199.19H149.792V194.449ZM149.792 189.708H154.532V194.449H149.792V189.708ZM145.051 184.968H149.792V189.708H145.051V184.968ZM140.31 180.227H145.051V184.968H140.31V180.227ZM135.569 180.227H140.31V184.968H135.569V180.227ZM130.829 180.227H135.569V184.968H130.829V180.227ZM130.829 184.968H135.569V189.708H130.829V184.968ZM126.088 184.968H130.829V189.708H126.088V184.968ZM126.088 189.708H130.829V194.449H126.088V189.708ZM130.829 189.708H135.569V194.449H130.829V189.708ZM135.569 189.708H140.31V194.449H135.569V189.708ZM126.088 194.449H130.829V199.19H126.088V194.449ZM168.755 227.634H173.495V232.375H168.755V227.634ZM173.495 227.634H178.236V232.375H173.495V227.634ZM173.495 222.894H178.236V227.634H173.495V222.894ZM173.495 218.153H178.236V222.894H173.495V218.153ZM173.495 213.412H178.236V218.153H173.495V213.412ZM178.236 213.412H182.977V218.153H178.236V213.412ZM178.236 208.671H182.977V213.412H178.236V208.671ZM178.236 218.153H182.977V222.894H178.236V218.153ZM178.236 222.894H182.977V227.634H178.236V222.894ZM178.236 227.634H182.977V232.375H178.236V227.634ZM168.755 222.894H173.495V227.634H168.755V222.894ZM168.755 218.153H173.495V222.894H168.755V218.153ZM168.755 213.412H173.495V218.153H168.755V213.412ZM168.755 208.671H173.495V213.412H168.755V208.671ZM168.755 203.931H173.495V208.671H168.755V203.931ZM168.755 199.19H173.495V203.931H168.755V199.19ZM168.755 194.449H173.495V199.19H168.755V194.449ZM168.755 189.708H173.495V194.449H168.755V189.708ZM168.755 184.968H173.495V189.708H168.755V184.968ZM164.014 184.968H168.755V189.708H164.014V184.968ZM173.495 189.708H178.236V194.449H173.495V189.708ZM173.495 194.449H178.236V199.19H173.495V194.449ZM173.495 199.19H178.236V203.931H173.495V199.19ZM173.495 203.931H178.236V208.671H173.495V203.931ZM173.495 208.671H178.236V213.412H173.495V208.671ZM178.236 203.931H182.977V208.671H178.236V203.931ZM178.236 199.19H182.977V203.931H178.236V199.19ZM178.236 194.449H182.977V199.19H178.236V194.449ZM178.236 189.708H182.977V194.449H178.236V189.708ZM173.495 184.968H178.236V189.708H173.495V184.968ZM168.755 180.227H173.495V184.968H168.755V180.227ZM164.014 180.227H168.755V184.968H164.014V180.227ZM159.273 180.227H164.014V184.968H159.273V180.227ZM159.273 184.968H164.014V189.708H159.273V184.968ZM154.532 184.968H159.273V189.708H154.532V184.968ZM154.532 189.708H159.273V194.449H154.532V189.708ZM159.273 189.708H164.014V194.449H159.273V189.708ZM164.014 189.708H168.755V194.449H164.014V189.708ZM154.532 194.449H159.273V199.19H154.532V194.449ZM239.898 161.264V166.005H235.157V161.264H239.898ZM239.898 166.005V170.745H235.157V166.005H239.898ZM239.898 170.745V175.486H235.157V170.745H239.898ZM239.898 175.486V180.227H235.157V175.486H239.898ZM239.898 180.227V184.968H235.157V180.227H239.898ZM239.898 184.968V189.708H235.157V184.968H239.898ZM239.898 222.894V227.634H235.157V222.894H239.898ZM239.898 227.634V232.375H235.157V227.634H239.898ZM235.157 227.634V232.375H230.417V227.634H235.157ZM230.417 161.264V166.005H225.676V161.264H230.417ZM235.157 161.264V166.005H230.417V161.264H235.157ZM235.157 166.005V170.745H230.417V166.005H235.157ZM230.417 166.005V170.745H225.676V166.005H230.417ZM230.417 170.745V175.486H225.676V170.745H230.417ZM230.417 175.486V180.227H225.676V175.486H230.417ZM235.157 180.227V184.968H230.417V180.227H235.157ZM235.157 175.486V180.227H230.417V175.486H235.157ZM235.157 170.745V175.486H230.417V170.745H235.157ZM220.935 180.227V184.968H216.194V180.227H220.935ZM216.194 180.227V184.968H211.454V180.227H216.194ZM211.454 180.227V184.968H206.713V180.227H211.454ZM206.713 180.227V184.968H201.972V180.227H206.713ZM201.972 184.968V189.708H197.231V184.968H201.972ZM206.713 184.968V189.708H201.972V184.968H206.713ZM211.454 184.968V189.708H206.713V184.968H211.454ZM216.194 184.968V189.708H211.454V184.968H216.194ZM220.935 184.968V189.708H216.194V184.968H220.935ZM225.676 184.968V189.708H220.935V184.968H225.676ZM235.157 184.968V189.708H230.417V184.968H235.157ZM230.417 213.412V218.153H225.676V213.412H230.417ZM225.676 222.894V227.634H220.935V222.894H225.676ZM225.676 218.153V222.894H220.935V218.153H225.676ZM220.935 227.634V232.375H216.194V227.634H220.935ZM216.194 227.634V232.375H211.454V227.634H216.194ZM211.454 227.634V232.375H206.713V227.634H211.454ZM206.713 227.634V232.375H201.972V227.634H206.713ZM211.454 222.894V227.634H206.713V222.894H211.454ZM216.194 222.894V227.634H211.454V222.894H216.194ZM220.935 222.894V227.634H216.194V222.894H220.935ZM206.713 222.894V227.634H201.972V222.894H206.713ZM201.972 222.894V227.634H197.231V222.894H201.972ZM206.713 218.153V222.894H201.972V218.153H206.713ZM211.454 218.153V222.894H206.713V218.153H211.454ZM201.972 218.153V222.894H197.231V218.153H201.972ZM197.231 218.153V222.894H192.491V218.153H197.231ZM197.231 213.412V218.153H192.491V213.412H197.231ZM201.972 208.671V213.412H197.231V208.671H201.972ZM201.972 213.412V218.153H197.231V213.412H201.972ZM206.713 213.412V218.153H201.972V213.412H206.713ZM197.231 208.671V213.412H192.491V208.671H197.231ZM197.231 203.931V208.671H192.491V203.931H197.231ZM201.972 203.931V208.671H197.231V203.931H201.972ZM201.972 199.19V203.931H197.231V199.19H201.972ZM201.972 194.449V199.19H197.231V194.449H201.972ZM197.231 194.449V199.19H192.491V194.449H197.231ZM197.231 189.708V194.449H192.491V189.708H197.231ZM197.231 199.19V203.931H192.491V199.19H197.231ZM206.713 203.931V208.671H201.972V203.931H206.713ZM206.713 208.671V213.412H201.972V208.671H206.713ZM206.713 199.19V203.931H201.972V199.19H206.713ZM206.713 194.449V199.19H201.972V194.449H206.713ZM206.713 189.708V194.449H201.972V189.708H206.713ZM211.454 189.708V194.449H206.713V189.708H211.454ZM201.972 189.708V194.449H197.231V189.708H201.972ZM225.676 189.708V194.449H220.935V189.708H225.676ZM220.935 189.708V194.449H216.194V189.708H220.935ZM216.194 189.708V194.449H211.454V189.708H216.194ZM220.935 218.153V222.894H216.194V218.153H220.935ZM216.194 218.153V222.894H211.454V218.153H216.194ZM230.417 227.634V232.375H225.676V227.634H230.417ZM230.417 222.894V227.634H225.676V222.894H230.417ZM230.417 218.153V222.894H225.676V218.153H230.417ZM235.157 218.153V222.894H230.417V218.153H235.157ZM235.157 222.894V227.634H230.417V222.894H235.157ZM235.157 213.412V218.153H230.417V213.412H235.157ZM230.417 208.671V213.412H225.676V208.671H230.417ZM230.417 203.931V208.671H225.676V203.931H230.417ZM230.417 199.19V203.931H225.676V199.19H230.417ZM230.417 194.449V199.19H225.676V194.449H230.417ZM230.417 189.708V194.449H225.676V189.708H230.417ZM230.417 184.968V189.708H225.676V184.968H230.417ZM230.417 180.227V184.968H225.676V180.227H230.417ZM235.157 189.708V194.449H230.417V189.708H235.157ZM235.157 194.449V199.19H230.417V194.449H235.157ZM235.157 199.19V203.931H230.417V199.19H235.157ZM235.157 203.931V208.671H230.417V203.931H235.157ZM235.157 208.671V213.412H230.417V208.671H235.157ZM239.898 213.412V218.153H235.157V213.412H239.898ZM239.898 218.153V222.894H235.157V218.153H239.898ZM239.898 208.671V213.412H235.157V208.671H239.898ZM239.898 203.931V208.671H235.157V203.931H239.898ZM239.898 199.19V203.931H235.157V199.19H239.898ZM239.898 194.449V199.19H235.157V194.449H239.898ZM239.898 189.708V194.449H235.157V189.708H239.898ZM220.935 213.412H225.676V218.153H220.935V213.412ZM220.935 180.227H225.676V184.968H220.935V180.227Z" fill="#F5F5F4"/>
</svg>
